<mxfile host="65bd71144e">
    <diagram id="rSxoALjN4No_AQTxvwPx" name="Page-1">
        <mxGraphModel grid="0" gridSize="10" guides="1" tooltips="1" connect="1" arrows="1" page="1" fold="1" pageScale="1" pageWidth="1169" pageHeight="827" math="0" shadow="0">
            <root>
                <mxCell id="0"/>
                <mxCell id="1" parent="0"/>
                <mxCell id="3" value="call back" style="html=1;verticalAlign=bottom;endArrow=block;rounded=0;entryX=1;entryY=0.088;entryDx=0;entryDy=0;entryPerimeter=0;sketch=1;fontFamily=Courier New;" parent="1" edge="1">
                    <mxGeometry width="80" relative="1" as="geometry">
                        <mxPoint x="721.5" y="417.0799999999999" as="sourcePoint"/>
                        <mxPoint x="564" y="417.0799999999999" as="targetPoint"/>
                    </mxGeometry>
                </mxCell>
                <mxCell id="4" value="list Container" style="shape=umlLifeline;perimeter=lifelinePerimeter;whiteSpace=wrap;html=1;container=1;collapsible=0;recursiveResize=0;outlineConnect=0;sketch=1;fontFamily=Courier New;" parent="1" vertex="1">
                    <mxGeometry x="509" y="320" width="100" height="300" as="geometry"/>
                </mxCell>
                <mxCell id="5" value="" style="html=1;points=[];perimeter=orthogonalPerimeter;sketch=1;fontFamily=Courier New;" parent="4" vertex="1">
                    <mxGeometry x="45" y="93" width="10" height="35" as="geometry"/>
                </mxCell>
                <mxCell id="6" value="list Item" style="shape=umlLifeline;perimeter=lifelinePerimeter;whiteSpace=wrap;html=1;container=1;collapsible=0;recursiveResize=0;outlineConnect=0;sketch=1;fontFamily=Courier New;" parent="1" vertex="1">
                    <mxGeometry x="672" y="320" width="100" height="300" as="geometry"/>
                </mxCell>
                <mxCell id="7" value="" style="html=1;points=[];perimeter=orthogonalPerimeter;sketch=1;fontFamily=Courier New;" parent="6" vertex="1">
                    <mxGeometry x="45" y="73" width="10" height="38" as="geometry"/>
                </mxCell>
                <mxCell id="8" value="" style="shape=umlLifeline;participant=umlActor;perimeter=lifelinePerimeter;whiteSpace=wrap;html=1;container=1;collapsible=0;recursiveResize=0;verticalAlign=top;spacingTop=36;outlineConnect=0;sketch=1;fontFamily=Courier New;" parent="1" vertex="1">
                    <mxGeometry x="853" y="320" width="20" height="300" as="geometry"/>
                </mxCell>
                <mxCell id="9" value="clicks the item" style="html=1;verticalAlign=bottom;endArrow=block;rounded=0;entryX=0.9;entryY=0.238;entryDx=0;entryDy=0;entryPerimeter=0;sketch=1;fontFamily=Courier New;" parent="1" edge="1">
                    <mxGeometry width="80" relative="1" as="geometry">
                        <mxPoint x="862.5" y="403.03999999999996" as="sourcePoint"/>
                        <mxPoint x="726" y="403.03999999999996" as="targetPoint"/>
                    </mxGeometry>
                </mxCell>
                <mxCell id="10" style="edgeStyle=orthogonalEdgeStyle;rounded=0;orthogonalLoop=1;jettySize=auto;html=1;exitX=0.5;exitY=1;exitDx=0;exitDy=0;exitPerimeter=0;entryX=-0.1;entryY=0.257;entryDx=0;entryDy=0;entryPerimeter=0;sketch=1;endArrow=none;endFill=0;dashed=1;fontFamily=Courier New;" parent="1" source="11" target="5" edge="1">
                    <mxGeometry relative="1" as="geometry">
                        <Array as="points">
                            <mxPoint x="752" y="272"/>
                            <mxPoint x="752" y="294"/>
                            <mxPoint x="459" y="294"/>
                            <mxPoint x="459" y="422"/>
                        </Array>
                    </mxGeometry>
                </mxCell>
                <mxCell id="11" value="updates the &lt;font color=&quot;#33ff33&quot;&gt;&lt;b&gt;new list &lt;/b&gt;&lt;/font&gt;to be rendered without the items select" style="shape=note2;boundedLbl=1;whiteSpace=wrap;html=1;size=25;verticalAlign=top;align=center;sketch=1;fontFamily=Courier New;" parent="1" vertex="1">
                    <mxGeometry x="680" y="172" width="140" height="100" as="geometry"/>
                </mxCell>
                <mxCell id="12" value="List Container" style="swimlane;fontStyle=1;align=center;verticalAlign=top;childLayout=stackLayout;horizontal=1;startSize=26;horizontalStack=0;resizeParent=1;resizeParentMax=0;resizeLast=0;collapsible=1;marginBottom=0;labelBorderColor=none;sketch=1;fontFamily=Courier New;fontSize=12;fontColor=default;strokeColor=default;fillColor=default;html=1;" parent="1" vertex="1">
                    <mxGeometry x="477.48" y="118" width="163.03" height="130" as="geometry"/>
                </mxCell>
                <mxCell id="13" value="&lt;font&gt;props {&lt;br&gt;&amp;nbsp; data: list[]&lt;br&gt;&amp;nbsp; cbFn: (data):void&lt;br&gt;}&lt;br&gt;&lt;/font&gt;" style="text;strokeColor=none;fillColor=default;align=left;verticalAlign=top;spacingLeft=4;spacingRight=4;overflow=hidden;rotatable=0;points=[[0,0.5],[1,0.5]];portConstraint=eastwest;labelBorderColor=none;sketch=1;fontFamily=Courier New;fontSize=12;fontColor=default;html=1;whiteSpace=wrap;" parent="12" vertex="1">
                    <mxGeometry y="26" width="163.03" height="70" as="geometry"/>
                </mxCell>
                <mxCell id="14" value="" style="line;strokeWidth=1;fillColor=default;align=left;verticalAlign=middle;spacingTop=-1;spacingLeft=3;spacingRight=3;rotatable=0;labelPosition=right;points=[];portConstraint=eastwest;labelBorderColor=none;sketch=1;fontFamily=Courier New;fontSize=12;fontColor=default;html=1;" parent="12" vertex="1">
                    <mxGeometry y="96" width="163.03" height="8" as="geometry"/>
                </mxCell>
                <mxCell id="15" value="+ method(type): type" style="text;strokeColor=none;fillColor=default;align=left;verticalAlign=top;spacingLeft=4;spacingRight=4;overflow=hidden;rotatable=0;points=[[0,0.5],[1,0.5]];portConstraint=eastwest;labelBorderColor=none;sketch=1;fontFamily=Courier New;fontSize=12;fontColor=default;html=1;" parent="12" vertex="1">
                    <mxGeometry y="104" width="163.03" height="26" as="geometry"/>
                </mxCell>
                <mxCell id="16" value="List Ui" style="shape=umlLifeline;perimeter=lifelinePerimeter;whiteSpace=wrap;html=1;container=1;collapsible=0;recursiveResize=0;outlineConnect=0;labelBorderColor=none;sketch=1;fontFamily=Courier New;fontSize=12;fontColor=default;strokeColor=default;fillColor=default;" parent="1" vertex="1">
                    <mxGeometry x="301" y="320" width="100" height="300" as="geometry"/>
                </mxCell>
            </root>
        </mxGraphModel>
    </diagram>
    <diagram id="VCcpjpweeXoqPLi9V9-A" name="Page-2">
        <mxGraphModel dx="603" dy="1616" grid="0" gridSize="10" guides="1" tooltips="1" connect="1" arrows="1" fold="1" page="1" pageScale="1" pageWidth="850" pageHeight="1100" math="0" shadow="0">
            <root>
                <mxCell id="0"/>
                <mxCell id="1" parent="0"/>
                <mxCell id="HVmd5oPD-uzvYYjfUGaW-1" value="" style="rounded=0;whiteSpace=wrap;html=1;fontFamily=Courier New;sketch=1;" parent="1" vertex="1">
                    <mxGeometry x="24" y="115" width="171" height="23" as="geometry"/>
                </mxCell>
                <mxCell id="HVmd5oPD-uzvYYjfUGaW-2" value="Input List Content text field" style="text;html=1;align=center;verticalAlign=middle;resizable=0;points=[];autosize=1;strokeColor=none;fillColor=none;fontFamily=Courier New;" parent="1" vertex="1">
                    <mxGeometry x="47" y="67" width="219" height="18" as="geometry"/>
                </mxCell>
                <mxCell id="HVmd5oPD-uzvYYjfUGaW-3" value="ADD" style="rounded=1;whiteSpace=wrap;html=1;sketch=1;fontFamily=Courier New;fillColor=#33FFFF;" parent="1" vertex="1">
                    <mxGeometry x="202" y="115" width="75" height="24" as="geometry"/>
                </mxCell>
                <mxCell id="HVmd5oPD-uzvYYjfUGaW-4" value="Input List Content" style="swimlane;fontStyle=1;align=center;verticalAlign=top;childLayout=stackLayout;horizontal=1;startSize=26;horizontalStack=0;resizeParent=1;resizeParentMax=0;resizeLast=0;collapsible=1;marginBottom=0;sketch=1;fontFamily=Courier New;fillColor=none;" parent="1" vertex="1">
                    <mxGeometry x="965.5" y="360" width="333" height="127" as="geometry"/>
                </mxCell>
                <mxCell id="HVmd5oPD-uzvYYjfUGaW-5" value="props {&#10;Â  onNewListItemAdded: (content: string):void&#10;}&#10;state {content: string}" style="text;strokeColor=none;fillColor=none;align=left;verticalAlign=top;spacingLeft=4;spacingRight=4;overflow=hidden;rotatable=0;points=[[0,0.5],[1,0.5]];portConstraint=eastwest;sketch=1;fontFamily=Courier New;" parent="HVmd5oPD-uzvYYjfUGaW-4" vertex="1">
                    <mxGeometry y="26" width="333" height="67" as="geometry"/>
                </mxCell>
                <mxCell id="HVmd5oPD-uzvYYjfUGaW-6" value="" style="line;strokeWidth=1;fillColor=none;align=left;verticalAlign=middle;spacingTop=-1;spacingLeft=3;spacingRight=3;rotatable=0;labelPosition=right;points=[];portConstraint=eastwest;sketch=1;fontFamily=Courier New;" parent="HVmd5oPD-uzvYYjfUGaW-4" vertex="1">
                    <mxGeometry y="93" width="333" height="8" as="geometry"/>
                </mxCell>
                <mxCell id="HVmd5oPD-uzvYYjfUGaW-7" value="addNewListItem(content: string)" style="text;strokeColor=none;fillColor=none;align=left;verticalAlign=top;spacingLeft=4;spacingRight=4;overflow=hidden;rotatable=0;points=[[0,0.5],[1,0.5]];portConstraint=eastwest;sketch=1;fontFamily=Courier New;" parent="HVmd5oPD-uzvYYjfUGaW-4" vertex="1">
                    <mxGeometry y="101" width="333" height="26" as="geometry"/>
                </mxCell>
                <mxCell id="HVmd5oPD-uzvYYjfUGaW-8" value="Actor" style="shape=umlActor;verticalLabelPosition=bottom;verticalAlign=top;html=1;outlineConnect=0;sketch=1;fontFamily=Courier New;fillColor=none;" parent="1" vertex="1">
                    <mxGeometry x="51" y="275" width="30" height="60" as="geometry"/>
                </mxCell>
                <mxCell id="HVmd5oPD-uzvYYjfUGaW-9" value="&lt;div&gt;&lt;br&gt;&lt;/div&gt;" style="text;html=1;align=left;verticalAlign=middle;resizable=0;points=[];autosize=1;strokeColor=none;fillColor=none;fontFamily=Courier New;" parent="1" vertex="1">
                    <mxGeometry x="180" y="332" width="10" height="18" as="geometry"/>
                </mxCell>
                <mxCell id="HVmd5oPD-uzvYYjfUGaW-10" value="&lt;ul&gt;&lt;li&gt;User types the content he wants to add to the list in the input field&lt;/li&gt;&lt;li&gt;press the add button to add the content&lt;/li&gt;&lt;li&gt;the content gets displayed in the list container bellow the items already in the list&lt;/li&gt;&lt;/ul&gt;" style="whiteSpace=wrap;html=1;sketch=1;fontFamily=Courier New;fillColor=none;align=left;verticalAlign=top;" parent="1" vertex="1">
                    <mxGeometry x="136" y="220" width="235" height="201" as="geometry"/>
                </mxCell>
                <mxCell id="HVmd5oPD-uzvYYjfUGaW-12" value="&lt;ul&gt;&lt;li&gt;When a user selects list items the delet button is displayed instead of the input field&lt;/li&gt;&lt;/ul&gt;" style="whiteSpace=wrap;html=1;sketch=1;fontFamily=Courier New;fillColor=none;align=left;verticalAlign=top;" parent="1" vertex="1">
                    <mxGeometry x="136" y="442" width="235" height="90" as="geometry"/>
                </mxCell>
                <mxCell id="HVmd5oPD-uzvYYjfUGaW-13" value="&lt;ul&gt;&lt;li&gt;A user cant add an empty content to the list&lt;/li&gt;&lt;/ul&gt;" style="whiteSpace=wrap;html=1;sketch=1;fontFamily=Courier New;fillColor=none;align=left;verticalAlign=top;" parent="1" vertex="1">
                    <mxGeometry x="136" y="550" width="235" height="63" as="geometry"/>
                </mxCell>
                <mxCell id="HVmd5oPD-uzvYYjfUGaW-14" value="List UI" style="rounded=0;whiteSpace=wrap;html=1;sketch=1;fontFamily=Courier New;fillColor=none;" parent="1" vertex="1">
                    <mxGeometry x="705" y="51" width="120" height="60" as="geometry"/>
                </mxCell>
                <mxCell id="HVmd5oPD-uzvYYjfUGaW-15" value="List Container" style="rounded=0;whiteSpace=wrap;html=1;sketch=1;fontFamily=Courier New;fillColor=none;" parent="1" vertex="1">
                    <mxGeometry x="705" y="176" width="120" height="60" as="geometry"/>
                </mxCell>
                <mxCell id="HVmd5oPD-uzvYYjfUGaW-16" value="Input List Content" style="rounded=0;whiteSpace=wrap;html=1;sketch=1;fontFamily=Courier New;fillColor=none;" parent="1" vertex="1">
                    <mxGeometry x="631" y="288" width="120" height="70" as="geometry"/>
                </mxCell>
                <mxCell id="HVmd5oPD-uzvYYjfUGaW-17" value="List Item" style="rounded=0;whiteSpace=wrap;html=1;sketch=1;fontFamily=Courier New;fillColor=default;" parent="1" vertex="1">
                    <mxGeometry x="785" y="288" width="120" height="70" as="geometry"/>
                </mxCell>
                <mxCell id="eamHzpph56t5jzTISYll-1" value="List Container" style="swimlane;fontStyle=1;align=center;verticalAlign=top;childLayout=stackLayout;horizontal=1;startSize=26;horizontalStack=0;resizeParent=1;resizeParentMax=0;resizeLast=0;collapsible=1;marginBottom=0;labelBorderColor=none;sketch=1;fontFamily=Courier New;fontSize=12;fontColor=default;strokeColor=default;fillColor=default;html=1;" parent="1" vertex="1">
                    <mxGeometry x="1004" y="167" width="267" height="130" as="geometry"/>
                </mxCell>
                <mxCell id="eamHzpph56t5jzTISYll-2" value="&lt;font&gt;props {&lt;br&gt;&amp;nbsp; data: ListContent[]&lt;br&gt;&amp;nbsp; updateParentState: (newData):void&lt;br&gt;}&lt;br&gt;&lt;/font&gt;" style="text;strokeColor=none;fillColor=default;align=left;verticalAlign=top;spacingLeft=4;spacingRight=4;overflow=hidden;rotatable=0;points=[[0,0.5],[1,0.5]];portConstraint=eastwest;labelBorderColor=none;sketch=1;fontFamily=Courier New;fontSize=12;fontColor=default;html=1;whiteSpace=wrap;" parent="eamHzpph56t5jzTISYll-1" vertex="1">
                    <mxGeometry y="26" width="267" height="70" as="geometry"/>
                </mxCell>
                <mxCell id="eamHzpph56t5jzTISYll-3" value="" style="line;strokeWidth=1;fillColor=default;align=left;verticalAlign=middle;spacingTop=-1;spacingLeft=3;spacingRight=3;rotatable=0;labelPosition=right;points=[];portConstraint=eastwest;labelBorderColor=none;sketch=1;fontFamily=Courier New;fontSize=12;fontColor=default;html=1;" parent="eamHzpph56t5jzTISYll-1" vertex="1">
                    <mxGeometry y="96" width="267" height="8" as="geometry"/>
                </mxCell>
                <mxCell id="eamHzpph56t5jzTISYll-4" value="+ method(type): type" style="text;strokeColor=none;fillColor=default;align=left;verticalAlign=top;spacingLeft=4;spacingRight=4;overflow=hidden;rotatable=0;points=[[0,0.5],[1,0.5]];portConstraint=eastwest;labelBorderColor=none;sketch=1;fontFamily=Courier New;fontSize=12;fontColor=default;html=1;" parent="eamHzpph56t5jzTISYll-1" vertex="1">
                    <mxGeometry y="104" width="267" height="26" as="geometry"/>
                </mxCell>
                <mxCell id="eamHzpph56t5jzTISYll-9" style="edgeStyle=orthogonalEdgeStyle;rounded=0;orthogonalLoop=1;jettySize=auto;html=1;entryX=0.476;entryY=0.015;entryDx=0;entryDy=0;entryPerimeter=0;fontFamily=Courier New;endArrow=open;endFill=0;endSize=13;sketch=1;" parent="1" source="eamHzpph56t5jzTISYll-5" target="eamHzpph56t5jzTISYll-1" edge="1">
                    <mxGeometry relative="1" as="geometry"/>
                </mxCell>
                <mxCell id="eamHzpph56t5jzTISYll-5" value="List UI" style="swimlane;fontStyle=1;align=center;verticalAlign=top;childLayout=stackLayout;horizontal=1;startSize=26;horizontalStack=0;resizeParent=1;resizeParentMax=0;resizeLast=0;collapsible=1;marginBottom=0;labelBorderColor=none;sketch=1;fontFamily=Courier New;fontSize=12;fontColor=default;strokeColor=default;fillColor=default;html=1;" parent="1" vertex="1">
                    <mxGeometry x="1004" y="-30" width="256" height="130" as="geometry"/>
                </mxCell>
                <mxCell id="eamHzpph56t5jzTISYll-6" value="&lt;font&gt;props {}&lt;br&gt;state {&lt;br&gt;&amp;nbsp; data: ListContent[]&lt;br&gt;}&lt;br&gt;&lt;/font&gt;" style="text;strokeColor=none;fillColor=default;align=left;verticalAlign=top;spacingLeft=4;spacingRight=4;overflow=hidden;rotatable=0;points=[[0,0.5],[1,0.5]];portConstraint=eastwest;labelBorderColor=none;sketch=1;fontFamily=Courier New;fontSize=12;fontColor=default;html=1;whiteSpace=wrap;" parent="eamHzpph56t5jzTISYll-5" vertex="1">
                    <mxGeometry y="26" width="256" height="70" as="geometry"/>
                </mxCell>
                <mxCell id="eamHzpph56t5jzTISYll-7" value="" style="line;strokeWidth=1;fillColor=default;align=left;verticalAlign=middle;spacingTop=-1;spacingLeft=3;spacingRight=3;rotatable=0;labelPosition=right;points=[];portConstraint=eastwest;labelBorderColor=none;sketch=1;fontFamily=Courier New;fontSize=12;fontColor=default;html=1;" parent="eamHzpph56t5jzTISYll-5" vertex="1">
                    <mxGeometry y="96" width="256" height="8" as="geometry"/>
                </mxCell>
                <mxCell id="eamHzpph56t5jzTISYll-8" value="+ method(type): type" style="text;strokeColor=none;fillColor=default;align=left;verticalAlign=top;spacingLeft=4;spacingRight=4;overflow=hidden;rotatable=0;points=[[0,0.5],[1,0.5]];portConstraint=eastwest;labelBorderColor=none;sketch=1;fontFamily=Courier New;fontSize=12;fontColor=default;html=1;" parent="eamHzpph56t5jzTISYll-5" vertex="1">
                    <mxGeometry y="104" width="256" height="26" as="geometry"/>
                </mxCell>
            </root>
        </mxGraphModel>
    </diagram>
</mxfile>